<svg version="1.1" xmlns="http://www.w3.org/2000/svg" xmlns:xlink="http://www.w3.org/1999/xlink" viewBox="0 0 172 172"><g fill="none" fill-rule="nonzero" stroke="none" stroke-width="1" stroke-linecap="butt" stroke-linejoin="miter" stroke-miterlimit="10" stroke-dasharray="" stroke-dashoffset="0" font-family="none" font-weight="none" font-size="none" text-anchor="none" style="mix-blend-mode: normal"><path d="M0,172v-172h172v172z" fill="none"></path><g fill="#999999"><path d="M78.40692,21.98733l-15.46208,-3.49017c-12.61333,-2.84875 -25.14425,5.06683 -27.993,17.68017l-3.52242,15.59108c10.148,-16.11425 27.18317,-27.44475 46.9775,-29.78108zM21.98733,93.59308l-3.49017,15.46208c-2.84875,12.61333 5.06683,25.14425 17.68017,27.993l15.59108,3.52242c-16.11425,-10.15158 -27.44475,-27.18317 -29.78108,-46.9775zM135.82267,34.95183l-15.59108,-3.52242c16.11425,10.148 27.44475,27.18317 29.78108,46.97392l3.49017,-15.46208c2.84875,-12.60617 -5.06683,-25.14067 -17.68017,-27.98942zM93.59308,150.01267l15.46208,3.49017c12.61333,2.84875 25.14425,-5.06683 27.993,-17.68017l3.52242,-15.59108c-10.148,16.11425 -27.18317,27.44475 -46.9775,29.78108z"></path><path d="M86,28.66667c-31.66592,0 -57.33333,25.66742 -57.33333,57.33333c0,31.66592 25.66742,57.33333 57.33333,57.33333c31.66592,0 57.33333,-25.66742 57.33333,-57.33333c0,-31.66592 -25.66742,-57.33333 -57.33333,-57.33333zM71.66667,46.58333c7.91558,0 14.33333,6.41775 14.33333,14.33333c0,7.91558 -6.41775,14.33333 -14.33333,14.33333c-7.91558,0 -14.33333,-6.41775 -14.33333,-14.33333c0,-7.91558 6.41775,-14.33333 14.33333,-14.33333zM60.91667,114.66667c-7.91558,0 -14.33333,-6.41775 -14.33333,-14.33333c0,-7.91558 6.41775,-14.33333 14.33333,-14.33333c7.91558,0 14.33333,6.41775 14.33333,14.33333c0,7.91558 -6.41775,14.33333 -14.33333,14.33333zM78.83333,86c0,-3.95958 3.20708,-7.16667 7.16667,-7.16667c3.95958,0 7.16667,3.20708 7.16667,7.16667c0,3.95958 -3.20708,7.16667 -7.16667,7.16667c-3.95958,0 -7.16667,-3.20708 -7.16667,-7.16667zM100.33333,125.41667c-7.91558,0 -14.33333,-6.41775 -14.33333,-14.33333c0,-7.91558 6.41775,-14.33333 14.33333,-14.33333c7.91558,0 14.33333,6.41775 14.33333,14.33333c0,7.91558 -6.41775,14.33333 -14.33333,14.33333zM111.08333,86c-7.91558,0 -14.33333,-6.41775 -14.33333,-14.33333c0,-7.91558 6.41775,-14.33333 14.33333,-14.33333c7.91558,0 14.33333,6.41775 14.33333,14.33333c0,7.91558 -6.41775,14.33333 -14.33333,14.33333z"></path></g></g></svg>