<svg version="1.1" xmlns="http://www.w3.org/2000/svg" xmlns:xlink="http://www.w3.org/1999/xlink" viewBox="0 0 172 172"><g fill="none" fill-rule="nonzero" stroke="none" stroke-width="1" stroke-linecap="butt" stroke-linejoin="miter" stroke-miterlimit="10" stroke-dasharray="" stroke-dashoffset="0" font-family="none" font-weight="none" font-size="none" text-anchor="none" style="mix-blend-mode: normal"><path d="M0,172v-172h172v172z" fill="none"></path><g fill="#999999"><path d="M140.12793,21.47901c-1.80567,0.08398 -3.50635,0.60889 -5.01807,1.19678h-0.02099c-1.53272,0.60889 -8.81836,3.67432 -19.8833,8.31445c-11.06494,4.66114 -25.42627,10.70801 -39.68262,16.71289c-28.4707,11.98877 -56.45849,23.78857 -56.45849,23.78857l0.33594,-0.12597c0,0 -1.93164,0.62988 -3.94727,2.01563c-1.02881,0.67188 -2.1626,1.5957 -3.14941,3.04443c-0.98682,1.44873 -1.78467,3.67432 -1.49072,5.96289c0.48291,3.88428 3.00244,6.21484 4.8081,7.4956c1.82666,1.30176 3.56934,1.91065 3.56934,1.91065h0.04199l26.24512,8.83935c1.17578,3.7793 7.99951,26.20313 9.6372,31.36817c0.96582,3.08643 1.91065,5.01807 3.08643,6.48779c0.5669,0.75586 1.23877,1.38574 2.03662,1.88965c0.31494,0.18896 0.65088,0.33594 0.98682,0.46191c0.10498,0.06299 0.20996,0.08398 0.33594,0.10498l-0.27295,-0.06298c0.08398,0.02099 0.14697,0.08398 0.20996,0.10498c0.20996,0.06299 0.35694,0.08398 0.62989,0.12597c4.15722,1.25977 7.4956,-1.32275 7.4956,-1.32275l0.18896,-0.14697l15.49512,-14.10937l25.97217,19.92529l0.58789,0.25195c5.41699,2.37256 10.89697,1.04981 13.79443,-1.28076c2.91846,-2.35156 4.05225,-5.35401 4.05225,-5.35401l0.18896,-0.48291l20.07227,-102.81787c0.5669,-2.54053 0.71386,-4.91308 0.08398,-7.22266c-0.62989,-2.30957 -2.24658,-4.47217 -4.19922,-5.62695c-1.97364,-1.17578 -3.92627,-1.53271 -5.73193,-1.44873zM139.58203,32.50195c-0.02099,0.33594 0.04199,0.29395 -0.10498,0.94482v0.06299l-19.8833,101.74707c-0.08398,0.14697 -0.23096,0.46191 -0.62988,0.77685c-0.41992,0.33594 -0.75586,0.5459 -2.49854,-0.14697l-31.76709,-24.35547l-19.19043,17.48974l4.03125,-25.74121c0,0 49.76074,-46.38037 51.90234,-48.375c2.1416,-1.99463 1.42773,-2.41455 1.42773,-2.41455c0.14697,-2.43555 -3.2334,-0.71386 -3.2334,-0.71386l-65.44483,40.54345l-0.02099,-0.10498l-31.36816,-10.56104v-0.02099c-0.021,0 -0.06299,-0.02099 -0.08398,-0.02099c0.02099,0 0.16797,-0.06299 0.16797,-0.06299l0.16797,-0.08398l0.16797,-0.06299c0,0 28.00879,-11.7998 56.47949,-23.78857c14.25635,-6.00488 28.61768,-12.05176 39.66162,-16.71289c11.04395,-4.64014 19.21143,-8.04151 19.67334,-8.23047c0.44092,-0.16797 0.23095,-0.16797 0.5459,-0.16797z"></path></g></g></svg>